<svg version="1.2" xmlns="http://www.w3.org/2000/svg" viewBox="0 0 2000 2000" width="2000" height="2000">
	<title>AIFile-ai</title>
	<style>
		.s0 { fill: #1169df } 
		.s1 { fill: #abd3ff } 
	</style>
	<g id="Layer 1">
		<g id="&lt;Group&gt;">
			<g id="&lt;Group&gt;">
				<g id="&lt;Group&gt;">
					<g id="&lt;Group&gt;">
						<g id="&lt;Group&gt;">
							<path id="&lt;Path&gt;" class="s0" d="m1032.3 839.8c-4 3.7-12.8 7.7-16.4 11.8h-73.5c-1.7 0-3.2-0.6-4.2-1.7-1.1-1.1-1.8-2.5-1.8-4.2 0-3.2 2.7-5.9 6-5.9z"/>
						</g>
						<g id="&lt;Group&gt;">
							<rect id="&lt;Path&gt;" class="s0" x="856.6" y="839.8" width="61.8" height="11.8" rx="5.9"></rect>
						</g>
					</g>
					<g id="&lt;Group&gt;">
						<g id="&lt;Group&gt;">
							<path id="&lt;Path&gt;" class="s0" d="m1004.4 865.2q-4 5.7-7.2 11.8h-94c-1.6 0-3.1-0.7-4.2-1.7-1-1.1-1.7-2.6-1.7-4.2 0-3.3 2.7-5.9 5.9-5.9z"/>
						</g>
						<g id="&lt;Group&gt;">
							<path id="&lt;Path&gt;" class="s0" d="m875.9 871.1c0 3.2-2.7 5.9-5.9 5.9h-24.6c-3.6 0-6.4-3.2-5.8-6.9 0.4-2.9 3.2-4.9 6.1-4.9h24.3c3.2 0 5.9 2.6 5.9 5.9z"/>
						</g>
					</g>
					<g id="&lt;Group&gt;">
						<g id="&lt;Group&gt;">
							<path id="&lt;Path&gt;" class="s0" d="m982.4 889.4q-2.5 5.8-4.4 11.8h-55.6c-1.7 0-3.2-0.6-4.2-1.7-1.1-1.1-1.8-2.6-1.8-4.2 0-3.3 2.7-5.9 6-5.9z"/>
						</g>
						<g id="&lt;Group&gt;">
							<path id="&lt;Path&gt;" class="s0" d="m888.9 895.3c0 3.3-2.6 5.9-5.9 5.9h-77.2c-3.6 0-6.4-3.2-5.8-6.9 0.5-2.9 3.2-4.9 6.1-4.9h76.9c3.3 0 5.9 2.6 5.9 5.9z"/>
						</g>
					</g>
					<g id="&lt;Group&gt;">
						<g id="&lt;Group&gt;">
							<path id="&lt;Path&gt;" class="s0" d="m910.1 918.5c0 3.3-2.6 5.9-5.9 5.9h-53.5c-1.7 0-3.1-0.6-4.2-1.7-1-1-1.7-2.4-1.7-3.9-0.2-3.4 2.8-6.2 6.2-6.2h53.2c3.3 0 5.9 2.7 5.9 5.9z"/>
							<path id="&lt;Path&gt;" class="s0" d="m945.5 912.6h29.9q-1.4 5.8-2.1 11.8h-27.8c-3.3 0-5.9-2.6-5.9-5.9 0-3.2 2.6-5.9 5.9-5.9z"/>
						</g>
						<g id="&lt;Group&gt;">
							<path id="&lt;Path&gt;" class="s0" d="m830.1 918.5c0 3.3-2.7 5.9-5.9 5.9h-38.4c-3.6 0-6.4-3.2-5.8-6.9 0.5-2.9 3.2-4.9 6.1-4.9h38.1c3.2 0 5.9 2.7 5.9 5.9z"/>
						</g>
					</g>
					<g id="&lt;Group&gt;">
						<g id="&lt;Group&gt;">
							<path id="&lt;Path&gt;" class="s0" d="m972.3 940.8q0 3 0.1 5.9h-61.2c-1.6 0-3.1-0.6-4.1-1.7-1.1-1.1-1.8-2.5-1.8-4.2 0-3.2 2.7-5.9 5.9-5.9h61.2q-0.1 2.9-0.1 5.9z"/>
						</g>
						<g id="&lt;Group&gt;">
							<rect id="&lt;Path&gt;" class="s0" x="824.6" y="934.9" width="62.1" height="11.8" rx="5.9"></rect>
						</g>
						<g id="&lt;Group&gt;">
							<rect id="&lt;Path&gt;" class="s0" x="746.9" y="934.9" width="62.1" height="11.8" rx="5.9"></rect>
						</g>
					</g>
					<g id="&lt;Group&gt;">
						<g id="&lt;Group&gt;">
							<path id="&lt;Path&gt;" class="s0" d="m941.7 962.3c0-3.3 2.6-5.9 5.9-5.9h25.7q0.7 6 2.1 11.8h-27.8c-3.3 0-5.9-2.6-5.9-5.9z"/>
							<path id="&lt;Path&gt;" class="s0" d="m917.1 962.3c0 3.3-2.7 5.9-5.9 5.9h-34.2c-1.6 0-3.1-0.6-4.2-1.7-1-1-1.7-2.4-1.7-4-0.1-3.4 2.8-6.1 6.2-6.1h33.9c3.2 0 5.9 2.6 5.9 5.9z"/>
						</g>
						<g id="&lt;Group&gt;">
							<path id="&lt;Path&gt;" class="s0" d="m854.7 962.3c0 3.3-2.6 5.9-5.9 5.9h-51.8c-3.6 0-6.5-3.2-5.9-6.9 0.5-2.9 3.2-4.9 6.2-4.9h51.5c3.3 0 5.9 2.6 5.9 5.9z"/>
						</g>
					</g>
					<g id="&lt;Group&gt;">
						<g id="&lt;Group&gt;">
							<path id="&lt;Path&gt;" class="s0" d="m982.4 991.1h-52c-1.6 0-3.1-0.6-4.2-1.7-1-1.1-1.7-2.5-1.7-4.2 0-3.2 2.6-5.9 5.9-5.9h47.6q1.9 6.1 4.4 11.8z"/>
						</g>
						<g id="&lt;Group&gt;">
							<path id="&lt;Path&gt;" class="s0" d="m842.6 985.2c0 3.3-2.7 5.9-6 5.9h-20.8c-3.6 0-6.4-3.2-5.8-6.9 0.5-2.9 3.2-4.9 6.1-4.9h20.5c3.3 0 6 2.7 6 5.9z"/>
						</g>
						<g id="&lt;Group&gt;">
							<rect id="&lt;Path&gt;" class="s0" x="855.8" y="979.3" width="51.8" height="11.8" rx="5.9"></rect>
						</g>
					</g>
					<g id="&lt;Group&gt;">
						<g id="&lt;Group&gt;">
							<path id="&lt;Path&gt;" class="s0" d="m881.3 1010.6c0 3.2-2.7 5.9-5.9 5.9h-40c-3.6 0-6.4-3.2-5.8-6.9 0.4-2.9 3.2-4.9 6.1-4.9h39.7c3.2 0 5.9 2.6 5.9 5.9z"/>
						</g>
						<g id="&lt;Group&gt;">
							<path id="&lt;Path&gt;" class="s0" d="m994.4 1016.5h-90.2c-1.6 0-3.1-0.7-4.2-1.7-1.1-1.1-1.7-2.6-1.7-4.2 0-3.3 2.6-5.9 5.9-5.9h83q3.2 6.1 7.2 11.8z"/>
						</g>
					</g>
					<g id="&lt;Group&gt;">
						<g id="&lt;Group&gt;">
							<path id="&lt;Path&gt;" class="s0" d="m975 1036.5c0-3.2 2.6-5.9 5.9-5.9h30.1c3.6 4.2 12.4 8.1 16.4 11.8h-46.5c-3.3 0-5.9-2.6-5.9-5.9z"/>
							<path id="&lt;Path&gt;" class="s0" d="m939.7 1036.5c0 3.3-2.7 5.9-5.9 5.9h-42.5c-1.7 0-3.1-0.6-4.2-1.7-1-1-1.7-2.4-1.7-4-0.1-3.3 2.8-6.1 6.2-6.1h42.2c3.2 0 5.9 2.7 5.9 5.9z"/>
						</g>
					</g>
				</g>
				<g id="&lt;Group&gt;">
					<g id="&lt;Group&gt;">
						<circle id="&lt;Path&gt;" class="s1" cx="1083" cy="943.5" r="98.3"/>
					</g>
					<g id="&lt;Group&gt;">
						<g id="&lt;Group&gt;">
							<path id="&lt;Path&gt;" class="s0" d="m1070 902.3q3.4-1.4 7.3-2v13.9c-4.6 1.1-6.9 4.2-6.9 8.6q0 3.9 2.8 5.9c0.4 0.4 2 1 4.1 1.7v17q0 0-0.1 0-5.8-1.6-10.1-3.5-4.4-1.9-7.2-4.4-2.9-2.5-4.3-6-1.5-3.4-1.5-8.2 0-5.8 2-10.3 2.1-4.6 5.6-7.7 3.5-3.2 8.3-5z"/>
						</g>
						<g id="&lt;Group&gt;">
							<path id="&lt;Path&gt;" class="s0" d="m1073.5 966.6q1.9 0.6 3.8 1v14.6q-6.4-0.8-12.6-2.9-7.7-2.7-13.9-7.1l7-13.7q0.9 1 3.2 2.5 2.2 1.5 5.4 2.9 3.2 1.5 7.1 2.7z"/>
						</g>
						<g id="&lt;Group&gt;">
							<path id="&lt;Compound Path&gt;" fill-rule="evenodd" class="s0" d="m1115.2 958.5q0 6.4-2.2 10.8-2.2 4.5-6.1 7.4-3.8 2.9-8.9 4.3-2.5 0.7-5.2 1.1v11.2h-12.5v-99.6h12.5v6.9q4.4 0.8 8.4 2.4 6.4 2.6 11.2 5.8l-7 12.9q-0.7-0.8-2.6-2-1.9-1.1-4.5-2.3-2.5-1.2-5.5-2.2v20.3c3.3 1.1 6.1 2 7.1 2.4q4.9 1.8 8.3 4.6 3.4 2.7 5.2 6.6 1.8 3.8 1.8 9.4zm-16.8 1.7q0-4.1-3.3-6.2c-0.3-0.3-1.2-0.7-2.3-1.2v14.7q5.5-1.9 5.6-7.3z"/>
						</g>
					</g>
					<g id="&lt;Group&gt;">
						<path id="&lt;Path&gt;" class="s0" d="m1174.9 948.1h-19.6v-9.1h19.6z"/>
					</g>
					<g id="&lt;Group&gt;">
						<path id="&lt;Path&gt;" class="s0" d="m1087.6 871.3h-9.1v-19.7h9.1z"/>
					</g>
					<g id="&lt;Group&gt;">
						<path id="&lt;Path&gt;" class="s0" d="m1010.8 948.1h-19.6v-9.1h19.6z"/>
					</g>
					<g id="&lt;Group&gt;">
						<path id="&lt;Path&gt;" class="s0" d="m1087.6 1035.4h-9.1v-19.6h9.1z"/>
					</g>
					<g id="&lt;Group&gt;">
						<path id="&lt;Path&gt;" class="s0" d="m1146.7 909.4l-2.2-4 17-9.8 2.2 4z"/>
					</g>
					<g id="&lt;Group&gt;">
						<path id="&lt;Path&gt;" class="s0" d="m1044.9 882.1l-9.8-17 4-2.3 9.8 17z"/>
					</g>
					<g id="&lt;Group&gt;">
						<path id="&lt;Path&gt;" class="s0" d="m1004.6 991.4l-2.3-3.9 17-9.8 2.3 3.9z"/>
					</g>
					<g id="&lt;Group&gt;">
						<path id="&lt;Path&gt;" class="s0" d="m1127 1024.2l-9.8-17 3.9-2.3 9.8 17z"/>
					</g>
					<g id="&lt;Group&gt;">
						<path id="&lt;Path&gt;" class="s0" d="m1121.1 882.1l-3.9-2.3 9.8-17 3.9 2.3z"/>
					</g>
					<g id="&lt;Group&gt;">
						<path id="&lt;Path&gt;" class="s0" d="m1019.3 909.4l-17-9.8 2.3-4 17 9.8z"/>
					</g>
					<g id="&lt;Group&gt;">
						<path id="&lt;Path&gt;" class="s0" d="m1039.1 1024.2l-4-2.3 9.8-17 4 2.3z"/>
					</g>
					<g id="&lt;Group&gt;">
						<path id="&lt;Path&gt;" class="s0" d="m1161.5 991.4l-17-9.8 2.2-3.9 17 9.8z"/>
					</g>
				</g>
				<g id="&lt;Group&gt;">
					<g id="&lt;Group&gt;">
						<path id="&lt;Compound Path&gt;" fill-rule="evenodd" class="s0" d="m1083 1059.4c-63.9 0-115.8-52-115.8-115.9 0-63.9 51.9-115.9 115.8-115.9 63.9 0 115.9 52 115.9 115.9 0 63.9-52 115.9-115.9 115.9zm0-222.6c-58.8 0-106.7 47.9-106.7 106.7 0 58.9 47.9 106.8 106.7 106.8 58.9 0 106.8-47.9 106.8-106.8 0-58.8-47.9-106.7-106.8-106.7z"/>
					</g>
				</g>
			</g>
		</g>
	</g>
</svg>