<svg width="1060" height="346" viewBox="0 0 1060 346" fill="none" xmlns="http://www.w3.org/2000/svg">
<path d="M47.2 344.9H43.2L24 298.3L4.60001 344.9H0.700012L22.4 293.8H25.5L47.2 344.9Z" fill="#1169DF"/>
<path fill-rule="evenodd" clip-rule="evenodd" d="M62.4 344.9V293.8H79.4C83.4 293.8 86.9333 294.467 90 295.8C93.0667 297.133 95.6 298.967 97.6 301.3C99.6 303.567 101.1 306.267 102.1 309.4C103.167 312.467 103.7 315.767 103.7 319.3C103.7 323.167 103.133 326.667 102 329.8C100.867 333 99.2333 335.7 97.1 337.9C94.9666 340.1 92.4 341.833 89.4 343.1C86.4 344.3 83.0667 344.9 79.4 344.9H62.4ZM100 319.3C100 316.1 99.5333 313.133 98.6 310.4C97.6666 307.667 96.3333 305.333 94.6 303.4C92.8666 301.4 90.7333 299.867 88.2 298.8C85.6667 297.667 82.7333 297.1 79.4 297.1H66.1V341.6H79.4C82.7333 341.6 85.7 341.033 88.3 339.9C90.8333 338.767 92.9667 337.2 94.7 335.2C96.4333 333.2 97.7333 330.833 98.6 328.1C99.5333 325.367 100 322.433 100 319.3Z" fill="#1169DF"/>
<path d="M155.4 341.6V344.9H121.3V293.8H154.7V297.1H125V317.2H151V320.4H125V341.6H155.4Z" fill="#1169DF"/>
<path d="M172.8 344.9V293.8H176.4V341.6H207V344.9H172.8Z" fill="#1169DF"/>
<path d="M263.6 344.9H259.6L240.3 298.3L220.9 344.9H217.1L238.8 293.8H241.8L263.6 344.9Z" fill="#1169DF"/>
<path d="M282.4 300.7V344.9H278.8V293.8H281.6L317.4 338.8V293.9H321.1V344.9H317.7L282.4 300.7Z" fill="#1169DF"/>
<path d="M377.7 297.1H359V344.9H355.3V297.1H336.6V293.8H377.7V297.1Z" fill="#1169DF"/>
<path d="M428.9 344.9H425L405.7 298.3L386.3 344.9H382.4L404.2 293.8H407.2L428.9 344.9Z" fill="#1169DF"/>
<path d="M501.9 297.1H483.2V344.9H479.5V297.1H460.8V293.8H501.9V297.1Z" fill="#1169DF"/>
<path d="M537.8 341.9C541.267 341.9 544.133 341.267 546.4 340C548.667 338.667 550.5 336.933 551.9 334.8C553.233 332.733 554.167 330.333 554.7 327.6C555.233 324.933 555.5 322.233 555.5 319.5V293.8H559.2V319.5C559.2 322.9 558.833 326.167 558.1 329.3C557.367 332.433 556.133 335.167 554.4 337.5C552.733 339.9 550.567 341.8 547.9 343.2C545.167 344.6 541.833 345.3 537.9 345.3C533.833 345.3 530.433 344.567 527.7 343.1C524.967 341.633 522.767 339.7 521.1 337.3C519.5 334.833 518.333 332.067 517.6 329C516.933 325.933 516.6 322.767 516.6 319.5V293.8H520.2V319.5C520.2 322.367 520.5 325.133 521.1 327.8C521.633 330.467 522.567 332.833 523.9 334.9C525.233 337.033 527.033 338.733 529.3 340C531.567 341.267 534.4 341.9 537.8 341.9V341.9Z" fill="#1169DF"/>
<path d="M634.9 302.3C631.633 298.633 626.967 296.8 620.9 296.8C615.9 296.8 612.267 297.733 610 299.6C607.733 301.467 606.6 304.033 606.6 307.3C606.6 308.9 606.867 310.267 607.4 311.4C608 312.467 608.9 313.367 610.1 314.1C611.367 314.9 612.933 315.567 614.8 316.1C616.733 316.633 618.967 317.167 621.5 317.7C624.3 318.3 626.8 318.933 629 319.6C631.2 320.333 633.1 321.2 634.7 322.2C636.233 323.267 637.433 324.567 638.3 326.1C639.1 327.633 639.5 329.533 639.5 331.8C639.5 334.067 639.067 336.033 638.2 337.7C637.333 339.367 636.1 340.767 634.5 341.9C632.9 343.033 630.967 343.9 628.7 344.5C626.5 345.1 624.033 345.4 621.3 345.4C613.3 345.4 606.533 342.833 601 337.7L603 334.8C605.133 337.067 607.767 338.833 610.9 340.1C614.033 341.433 617.533 342.1 621.4 342.1C625.867 342.1 629.367 341.3 631.9 339.7C634.433 338.033 635.7 335.533 635.7 332.2C635.7 330.533 635.367 329.133 634.7 328C634.033 326.8 633.033 325.767 631.7 324.9C630.367 324.033 628.7 323.3 626.7 322.7C624.7 322.033 622.367 321.433 619.7 320.9C616.967 320.3 614.533 319.667 612.4 319C610.333 318.4 608.567 317.6 607.1 316.6C605.7 315.6 604.633 314.4 603.9 313C603.167 311.6 602.8 309.867 602.8 307.8C602.8 305.467 603.267 303.4 604.2 301.6C605.067 299.867 606.3 298.367 607.9 297.1C609.433 295.9 611.333 295 613.6 294.4C615.8 293.733 618.233 293.4 620.9 293.4C624.233 293.4 627.2 293.9 629.8 294.9C632.333 295.9 634.667 297.4 636.8 299.4L634.9 302.3Z" fill="#1169DF"/>
<path d="M690.3 341.6V344.9H656.3V293.8H689.7V297.1H659.9V317.2H685.9V320.4H659.9V341.6H690.3Z" fill="#1169DF"/>
<path d="M711.4 300.7V344.9H707.7V293.8H710.5L746.4 338.8V293.9H750.1V344.9H746.7L711.4 300.7Z" fill="#1169DF"/>
<path d="M806.7 297.1H787.9V344.9H784.3V297.1H765.5V293.8H806.7V297.1Z" fill="#1169DF"/>
<path d="M856.2 341.6V344.9H822.1V293.8H855.5V297.1H825.8V317.2H851.8V320.4H825.8V341.6H856.2Z" fill="#1169DF"/>
<path d="M877.3 300.7V344.9H873.6V293.8H876.4L912.3 338.8V293.9H916V344.9H912.6L877.3 300.7Z" fill="#1169DF"/>
<path d="M933.3 319C933.3 315.933 933.833 312.867 934.9 309.8C935.967 306.733 937.533 304 939.6 301.6C941.667 299.2 944.2 297.267 947.2 295.8C950.2 294.267 953.633 293.5 957.5 293.5C962.033 293.5 965.933 294.533 969.2 296.6C972.4 298.733 974.767 301.433 976.3 304.7L973.3 306.4C972.433 304.6 971.367 303.1 970.1 301.9C968.9 300.7 967.6 299.733 966.2 299C964.733 298.267 963.233 297.733 961.7 297.4C960.167 297.067 958.667 296.9 957.2 296.9C953.933 296.9 951.067 297.567 948.6 298.9C946.067 300.233 943.933 301.933 942.2 304C940.467 306.133 939.167 308.533 938.3 311.2C937.433 313.867 937 316.533 937 319.2C937 322.267 937.533 325.167 938.6 327.9C939.6 330.633 941.033 333.033 942.9 335.1C944.7 337.167 946.867 338.833 949.4 340.1C951.867 341.367 954.533 342 957.4 342C958.933 342 960.5 341.8 962.1 341.4C963.767 341 965.333 340.4 966.8 339.6C968.333 338.8 969.733 337.767 971 336.5C972.333 335.233 973.433 333.733 974.3 332L977.4 333.5C976.533 335.433 975.367 337.133 973.9 338.6C972.433 340.067 970.767 341.3 968.9 342.3C967.1 343.3 965.167 344.067 963.1 344.6C961.1 345.133 959.1 345.4 957.1 345.4C953.633 345.4 950.433 344.6 947.5 343C944.633 341.467 942.133 339.467 940 337C937.867 334.533 936.233 331.733 935.1 328.6C933.9 325.467 933.3 322.267 933.3 319V319Z" fill="#1169DF"/>
<path d="M993.9 344.9V293.9H997.5V344.9H993.9Z" fill="#1169DF"/>
<path d="M1059.3 344.9H1055.3L1036 298.3L1016.7 344.9H1012.8L1034.5 293.8H1037.6L1059.3 344.9Z" fill="#1169DF"/>
<path d="M562.3 12.8C558.3 16.5 549.5 20.5 545.9 24.6H472.4C470.7 24.6 469.2 24 468.2 22.9C467.1 21.8 466.4 20.4 466.4 18.7C466.4 15.5 469.1 12.8 472.4 12.8H562.3Z" fill="#1169DF"/>
<path d="M442.5 12.8H392.5C389.242 12.8 386.6 15.4415 386.6 18.7C386.6 21.9585 389.242 24.6 392.5 24.6H442.5C445.758 24.6 448.4 21.9585 448.4 18.7C448.4 15.4415 445.758 12.8 442.5 12.8Z" fill="#1169DF"/>
<path d="M534.4 38.2C531.733 42 529.333 45.9333 527.2 50H433.2C431.6 50 430.1 49.3 429 48.3C428 47.2 427.3 45.7 427.3 44.1C427.3 40.8 430 38.2 433.2 38.2H534.4Z" fill="#1169DF"/>
<path d="M405.9 44.1C405.9 47.3 403.2 50 400 50H375.4C371.8 50 369 46.8 369.6 43.1C370 40.2 372.8 38.2 375.7 38.2H400C403.2 38.2 405.9 40.8 405.9 44.1Z" fill="#1169DF"/>
<path d="M512.4 62.4C510.733 66.2667 509.267 70.2 508 74.2H452.4C450.7 74.2 449.2 73.6 448.2 72.5C447.1 71.4 446.4 69.9 446.4 68.3C446.4 65 449.1 62.4 452.4 62.4H512.4Z" fill="#1169DF"/>
<path d="M418.9 68.3C418.9 71.6 416.3 74.2 413 74.2H335.8C332.2 74.2 329.4 71 330 67.3C330.5 64.4 333.2 62.4 336.1 62.4H413C416.3 62.4 418.9 65 418.9 68.3Z" fill="#1169DF"/>
<path d="M440.1 91.5C440.1 94.8 437.5 97.4 434.2 97.4H380.7C379 97.4 377.6 96.8 376.5 95.7C375.5 94.7 374.8 93.3 374.8 91.8C374.6 88.4 377.6 85.6 381 85.6H434.2C437.5 85.6 440.1 88.3 440.1 91.5V91.5Z" fill="#1169DF"/>
<path d="M475.5 85.6H505.4C504.467 89.4666 503.767 93.4 503.3 97.4H475.5C472.2 97.4 469.6 94.8 469.6 91.5C469.6 88.3 472.2 85.6 475.5 85.6Z" fill="#1169DF"/>
<path d="M360.1 91.5C360.1 94.8 357.4 97.4 354.2 97.4H315.8C312.2 97.4 309.4 94.2 310 90.5C310.5 87.6 313.2 85.6 316.1 85.6H354.2C357.4 85.6 360.1 88.3 360.1 91.5V91.5Z" fill="#1169DF"/>
<path d="M502.3 113.8C502.3 115.8 502.333 117.767 502.4 119.7H441.2C439.6 119.7 438.1 119.1 437.1 118C436 116.9 435.3 115.5 435.3 113.8C435.3 110.6 438 107.9 441.2 107.9H502.4C502.333 109.833 502.3 111.8 502.3 113.8V113.8Z" fill="#1169DF"/>
<path d="M410.8 107.9H360.5C357.242 107.9 354.6 110.542 354.6 113.8C354.6 117.058 357.242 119.7 360.5 119.7H410.8C414.058 119.7 416.7 117.058 416.7 113.8C416.7 110.542 414.058 107.9 410.8 107.9Z" fill="#1169DF"/>
<path d="M333.1 107.9H282.8C279.542 107.9 276.9 110.542 276.9 113.8C276.9 117.058 279.542 119.7 282.8 119.7H333.1C336.358 119.7 339 117.058 339 113.8C339 110.542 336.358 107.9 333.1 107.9Z" fill="#1169DF"/>
<path d="M471.7 135.3C471.7 132 474.3 129.4 477.6 129.4H503.3C503.767 133.4 504.467 137.333 505.4 141.2H477.6C474.3 141.2 471.7 138.6 471.7 135.3V135.3Z" fill="#1169DF"/>
<path d="M447.1 135.3C447.1 138.6 444.4 141.2 441.2 141.2H407C405.4 141.2 403.9 140.6 402.8 139.5C401.8 138.5 401.1 137.1 401.1 135.5C401 132.1 403.9 129.4 407.3 129.4H441.2C444.4 129.4 447.1 132 447.1 135.3V135.3Z" fill="#1169DF"/>
<path d="M384.7 135.3C384.7 138.6 382.1 141.2 378.8 141.2H327C323.4 141.2 320.5 138 321.1 134.3C321.6 131.4 324.3 129.4 327.3 129.4H378.8C382.1 129.4 384.7 132 384.7 135.3V135.3Z" fill="#1169DF"/>
<path d="M512.4 164.1H460.4C458.8 164.1 457.3 163.5 456.2 162.4C455.2 161.3 454.5 159.9 454.5 158.2C454.5 155 457.1 152.3 460.4 152.3H508C509.267 156.367 510.733 160.3 512.4 164.1V164.1Z" fill="#1169DF"/>
<path d="M372.6 158.2C372.6 161.5 369.9 164.1 366.6 164.1H345.8C342.2 164.1 339.4 160.9 340 157.2C340.5 154.3 343.2 152.3 346.1 152.3H366.6C369.9 152.3 372.6 155 372.6 158.2V158.2Z" fill="#1169DF"/>
<path d="M431.7 152.3H391.7C388.442 152.3 385.8 154.942 385.8 158.2C385.8 161.458 388.442 164.1 391.7 164.1H431.7C434.958 164.1 437.6 161.458 437.6 158.2C437.6 154.942 434.958 152.3 431.7 152.3Z" fill="#1169DF"/>
<path d="M411.3 183.6C411.3 186.8 408.6 189.5 405.4 189.5H365.4C361.8 189.5 359 186.3 359.6 182.6C360 179.7 362.8 177.7 365.7 177.7H405.4C408.6 177.7 411.3 180.3 411.3 183.6V183.6Z" fill="#1169DF"/>
<path d="M524.4 189.5H434.2C432.6 189.5 431.1 188.8 430 187.8C428.9 186.7 428.3 185.2 428.3 183.6C428.3 180.3 430.9 177.7 434.2 177.7H517.2C519.333 181.767 521.733 185.7 524.4 189.5V189.5Z" fill="#1169DF"/>
<path d="M505 209.5C505 206.3 507.6 203.6 510.9 203.6H541C544.6 207.8 553.4 211.7 557.4 215.4H510.9C507.6 215.4 505 212.8 505 209.5Z" fill="#1169DF"/>
<path d="M469.7 209.5C469.7 212.8 467 215.4 463.8 215.4H421.3C419.6 215.4 418.2 214.8 417.1 213.7C416.1 212.7 415.4 211.3 415.4 209.7C415.3 206.4 418.2 203.6 421.6 203.6H463.8C467 203.6 469.7 206.3 469.7 209.5V209.5Z" fill="#1169DF"/>
<path d="M613 214.8C667.29 214.8 711.3 170.79 711.3 116.5C711.3 62.2104 667.29 18.2 613 18.2C558.71 18.2 514.7 62.2104 514.7 116.5C514.7 170.79 558.71 214.8 613 214.8Z" fill="#ABD3FF"/>
<path d="M600 75.3C602.267 74.3667 604.7 73.7 607.3 73.3V87.2C602.7 88.3 600.4 91.4 600.4 95.8C600.4 98.4 601.333 100.367 603.2 101.7C603.6 102.1 605.2 102.7 607.3 103.4V120.4C607.3 120.4 607.267 120.4 607.2 120.4C603.333 119.333 599.967 118.167 597.1 116.9C594.167 115.633 591.767 114.167 589.9 112.5C587.967 110.833 586.533 108.833 585.6 106.5C584.6 104.233 584.1 101.5 584.1 98.3C584.1 94.4333 584.767 91 586.1 88C587.5 84.9333 589.367 82.3667 591.7 80.3C594.033 78.1667 596.8 76.5 600 75.3Z" fill="#1169DF"/>
<path d="M603.5 139.6C604.767 140 606.033 140.333 607.3 140.6V155.2C603.033 154.667 598.833 153.7 594.7 152.3C589.567 150.5 584.933 148.133 580.8 145.2L587.8 131.5C588.4 132.167 589.467 133 591 134C592.467 135 594.267 135.967 596.4 136.9C598.533 137.9 600.9 138.8 603.5 139.6Z" fill="#1169DF"/>
<path fill-rule="evenodd" clip-rule="evenodd" d="M645.2 131.5C645.2 135.767 644.467 139.367 643 142.3C641.533 145.3 639.5 147.767 636.9 149.7C634.367 151.633 631.4 153.067 628 154C626.333 154.467 624.6 154.833 622.8 155.1V166.3H610.3V66.7H622.8V73.6C625.733 74.1333 628.533 74.9333 631.2 76C635.467 77.7333 639.2 79.6667 642.4 81.8L635.4 94.7C634.933 94.1667 634.067 93.5 632.8 92.7C631.533 91.9667 630.033 91.2 628.3 90.4C626.633 89.6 624.8 88.8667 622.8 88.2V108.5C626.1 109.6 628.9 110.5 629.9 110.9C633.167 112.1 635.933 113.633 638.2 115.5C640.467 117.3 642.2 119.5 643.4 122.1C644.6 124.633 645.2 127.767 645.2 131.5V131.5ZM628.4 133.2C628.4 130.467 627.3 128.4 625.1 127C624.8 126.7 623.9 126.3 622.8 125.8V140.5C626.467 139.233 628.333 136.8 628.4 133.2Z" fill="#1169DF"/>
<path d="M704.9 121.1H685.3V112H704.9V121.1Z" fill="#1169DF"/>
<path d="M617.6 44.3H608.5V24.6H617.6V44.3Z" fill="#1169DF"/>
<path d="M540.8 121.1H521.2V112H540.8V121.1Z" fill="#1169DF"/>
<path d="M617.6 208.4H608.5V188.8H617.6V208.4Z" fill="#1169DF"/>
<path d="M676.7 82.4L674.5 78.4L691.5 68.6L693.7 72.6L676.7 82.4Z" fill="#1169DF"/>
<path d="M574.9 55.1L565.1 38.1L569.1 35.8L578.9 52.8L574.9 55.1Z" fill="#1169DF"/>
<path d="M534.6 164.4L532.3 160.5L549.3 150.7L551.6 154.6L534.6 164.4Z" fill="#1169DF"/>
<path d="M657 197.2L647.2 180.2L651.1 177.9L660.9 194.9L657 197.2Z" fill="#1169DF"/>
<path d="M651.1 55.1L647.2 52.8L657 35.8L660.9 38.1L651.1 55.1Z" fill="#1169DF"/>
<path d="M549.3 82.4L532.3 72.6L534.6 68.6L551.6 78.4L549.3 82.4Z" fill="#1169DF"/>
<path d="M569.1 197.2L565.1 194.9L574.9 177.9L578.9 180.2L569.1 197.2Z" fill="#1169DF"/>
<path d="M691.5 164.4L674.5 154.6L676.7 150.7L693.7 160.5L691.5 164.4Z" fill="#1169DF"/>
<path fill-rule="evenodd" clip-rule="evenodd" d="M613 232.4C549.1 232.4 497.2 180.4 497.2 116.5C497.2 52.6 549.1 0.599976 613 0.599976C676.9 0.599976 728.9 52.6 728.9 116.5C728.9 180.4 676.9 232.4 613 232.4ZM613 9.79999C554.2 9.79999 506.3 57.7 506.3 116.5C506.3 175.4 554.2 223.3 613 223.3C671.9 223.3 719.8 175.4 719.8 116.5C719.8 57.7 671.9 9.79999 613 9.79999Z" fill="#1169DF"/>
</svg>
