<svg width="453" height="233" viewBox="0 0 453 233" fill="none" xmlns="http://www.w3.org/2000/svg">
<path d="M286.3 12.8C282.3 16.5 273.5 20.5 269.9 24.6H196.4C194.7 24.6 193.2 24 192.2 22.9C191.1 21.8 190.4 20.4 190.4 18.7C190.4 15.5 193.1 12.8 196.4 12.8H286.3Z" fill="#1169DF"/>
<path d="M166.5 12.8H116.5C113.242 12.8 110.6 15.4415 110.6 18.7C110.6 21.9585 113.242 24.6 116.5 24.6H166.5C169.758 24.6 172.4 21.9585 172.4 18.7C172.4 15.4415 169.758 12.8 166.5 12.8Z" fill="#1169DF"/>
<path d="M258.4 38.2C255.733 42 253.333 45.9333 251.2 50H157.2C155.6 50 154.1 49.3 153 48.3C152 47.2 151.3 45.7 151.3 44.1C151.3 40.8 154 38.2 157.2 38.2H258.4Z" fill="#1169DF"/>
<path d="M129.9 44.1C129.9 47.3 127.2 50 124 50H99.4C95.8 50 93 46.8 93.6 43.1C94 40.2 96.8 38.2 99.7 38.2H124C127.2 38.2 129.9 40.8 129.9 44.1Z" fill="#1169DF"/>
<path d="M236.4 62.4C234.733 66.2667 233.267 70.2 232 74.2H176.4C174.7 74.2 173.2 73.6 172.2 72.5C171.1 71.4 170.4 69.9 170.4 68.3C170.4 65 173.1 62.4 176.4 62.4H236.4Z" fill="#1169DF"/>
<path d="M142.9 68.3C142.9 71.6 140.3 74.2 137 74.2H59.8C56.2 74.2 53.4 71 54 67.3C54.5 64.4 57.2 62.4 60.1 62.4H137C140.3 62.4 142.9 65 142.9 68.3Z" fill="#1169DF"/>
<path d="M164.1 91.5C164.1 94.8 161.5 97.4 158.2 97.4H104.7C103 97.4 101.6 96.8 100.5 95.7C99.5 94.7 98.8 93.3 98.8 91.8C98.6 88.4 101.6 85.6 105 85.6H158.2C161.5 85.6 164.1 88.3 164.1 91.5V91.5Z" fill="#1169DF"/>
<path d="M199.5 85.6H229.4C228.467 89.4666 227.767 93.4 227.3 97.4H199.5C196.2 97.4 193.6 94.8 193.6 91.5C193.6 88.3 196.2 85.6 199.5 85.6Z" fill="#1169DF"/>
<path d="M84.1 91.5C84.1 94.8 81.4 97.4 78.2 97.4H39.8C36.2 97.4 33.4 94.2 34 90.5C34.5 87.6 37.2 85.6 40.1 85.6H78.2C81.4 85.6 84.1 88.3 84.1 91.5V91.5Z" fill="#1169DF"/>
<path d="M226.3 113.8C226.3 115.8 226.333 117.767 226.4 119.7H165.2C163.6 119.7 162.1 119.1 161.1 118C160 116.9 159.3 115.5 159.3 113.8C159.3 110.6 162 107.9 165.2 107.9H226.4C226.333 109.833 226.3 111.8 226.3 113.8V113.8Z" fill="#1169DF"/>
<path d="M134.8 107.9H84.5C81.2415 107.9 78.6 110.542 78.6 113.8C78.6 117.058 81.2415 119.7 84.5 119.7H134.8C138.058 119.7 140.7 117.058 140.7 113.8C140.7 110.542 138.058 107.9 134.8 107.9Z" fill="#1169DF"/>
<path d="M57.1 107.9H6.79999C3.54151 107.9 0.900024 110.542 0.900024 113.8C0.900024 117.058 3.54151 119.7 6.79999 119.7H57.1C60.3585 119.7 63 117.058 63 113.8C63 110.542 60.3585 107.9 57.1 107.9Z" fill="#1169DF"/>
<path d="M195.7 135.3C195.7 132 198.3 129.4 201.6 129.4H227.3C227.767 133.4 228.467 137.333 229.4 141.2H201.6C198.3 141.2 195.7 138.6 195.7 135.3V135.3Z" fill="#1169DF"/>
<path d="M171.1 135.3C171.1 138.6 168.4 141.2 165.2 141.2H131C129.4 141.2 127.9 140.6 126.8 139.5C125.8 138.5 125.1 137.1 125.1 135.5C125 132.1 127.9 129.4 131.3 129.4H165.2C168.4 129.4 171.1 132 171.1 135.3V135.3Z" fill="#1169DF"/>
<path d="M108.7 135.3C108.7 138.6 106.1 141.2 102.8 141.2H51C47.4 141.2 44.5 138 45.1 134.3C45.6 131.4 48.3 129.4 51.3 129.4H102.8C106.1 129.4 108.7 132 108.7 135.3V135.3Z" fill="#1169DF"/>
<path d="M236.4 164.1H184.4C182.8 164.1 181.3 163.5 180.2 162.4C179.2 161.3 178.5 159.9 178.5 158.2C178.5 155 181.1 152.3 184.4 152.3H232C233.267 156.367 234.733 160.3 236.4 164.1V164.1Z" fill="#1169DF"/>
<path d="M96.6 158.2C96.6 161.5 93.9 164.1 90.6 164.1H69.8C66.2 164.1 63.4 160.9 64 157.2C64.5 154.3 67.2 152.3 70.1 152.3H90.6C93.9 152.3 96.6 155 96.6 158.2V158.2Z" fill="#1169DF"/>
<path d="M155.7 152.3H115.7C112.442 152.3 109.8 154.942 109.8 158.2C109.8 161.458 112.442 164.1 115.7 164.1H155.7C158.958 164.1 161.6 161.458 161.6 158.2C161.6 154.942 158.958 152.3 155.7 152.3Z" fill="#1169DF"/>
<path d="M135.3 183.6C135.3 186.8 132.6 189.5 129.4 189.5H89.4C85.8 189.5 83 186.3 83.6 182.6C84 179.7 86.8 177.7 89.7 177.7H129.4C132.6 177.7 135.3 180.3 135.3 183.6V183.6Z" fill="#1169DF"/>
<path d="M248.4 189.5H158.2C156.6 189.5 155.1 188.8 154 187.8C152.9 186.7 152.3 185.2 152.3 183.6C152.3 180.3 154.9 177.7 158.2 177.7H241.2C243.333 181.767 245.733 185.7 248.4 189.5V189.5Z" fill="#1169DF"/>
<path d="M229 209.5C229 206.3 231.6 203.6 234.9 203.6H265C268.6 207.8 277.4 211.7 281.4 215.4H234.9C231.6 215.4 229 212.8 229 209.5V209.5Z" fill="#1169DF"/>
<path d="M193.7 209.5C193.7 212.8 191 215.4 187.8 215.4H145.3C143.6 215.4 142.2 214.8 141.1 213.7C140.1 212.7 139.4 211.3 139.4 209.7C139.3 206.4 142.2 203.6 145.6 203.6H187.8C191 203.6 193.7 206.3 193.7 209.5V209.5Z" fill="#1169DF"/>
<path d="M337 214.8C391.29 214.8 435.3 170.79 435.3 116.5C435.3 62.2104 391.29 18.2 337 18.2C282.71 18.2 238.7 62.2104 238.7 116.5C238.7 170.79 282.71 214.8 337 214.8Z" fill="#ABD3FF"/>
<path d="M324 75.3C326.267 74.3667 328.7 73.7 331.3 73.3V87.2C326.7 88.3 324.4 91.4 324.4 95.8C324.4 98.4 325.333 100.367 327.2 101.7C327.6 102.1 329.2 102.7 331.3 103.4V120.4C331.3 120.4 331.267 120.4 331.2 120.4C327.333 119.333 323.967 118.167 321.1 116.9C318.167 115.633 315.767 114.167 313.9 112.5C311.967 110.833 310.533 108.833 309.6 106.5C308.6 104.233 308.1 101.5 308.1 98.3C308.1 94.4333 308.767 91 310.1 88C311.5 84.9333 313.367 82.3667 315.7 80.3C318.033 78.1667 320.8 76.5 324 75.3V75.3Z" fill="#1169DF"/>
<path d="M327.5 139.6C328.767 140 330.033 140.333 331.3 140.6V155.2C327.033 154.667 322.833 153.7 318.7 152.3C313.567 150.5 308.933 148.133 304.8 145.2L311.8 131.5C312.4 132.167 313.467 133 315 134C316.467 135 318.267 135.967 320.4 136.9C322.533 137.9 324.9 138.8 327.5 139.6Z" fill="#1169DF"/>
<path fill-rule="evenodd" clip-rule="evenodd" d="M369.2 131.5C369.2 135.767 368.467 139.367 367 142.3C365.533 145.3 363.5 147.767 360.9 149.7C358.367 151.633 355.4 153.067 352 154C350.333 154.467 348.6 154.833 346.8 155.1V166.3H334.3V66.7H346.8V73.6C349.733 74.1333 352.533 74.9333 355.2 76C359.467 77.7333 363.2 79.6667 366.4 81.8L359.4 94.7C358.933 94.1667 358.067 93.5 356.8 92.7C355.533 91.9667 354.033 91.2 352.3 90.4C350.633 89.6 348.8 88.8667 346.8 88.2V108.5C350.1 109.6 352.9 110.5 353.9 110.9C357.167 112.1 359.933 113.633 362.2 115.5C364.467 117.3 366.2 119.5 367.4 122.1C368.6 124.633 369.2 127.767 369.2 131.5V131.5ZM352.4 133.2C352.4 130.467 351.3 128.4 349.1 127C348.8 126.7 347.9 126.3 346.8 125.8V140.5C350.467 139.233 352.333 136.8 352.4 133.2Z" fill="#1169DF"/>
<path d="M428.9 121.1H409.3V112H428.9V121.1Z" fill="#1169DF"/>
<path d="M341.6 44.3H332.5V24.6H341.6V44.3Z" fill="#1169DF"/>
<path d="M264.8 121.1H245.2V112H264.8V121.1Z" fill="#1169DF"/>
<path d="M341.6 208.4H332.5V188.8H341.6V208.4Z" fill="#1169DF"/>
<path d="M400.7 82.4L398.5 78.4L415.5 68.6L417.7 72.6L400.7 82.4Z" fill="#1169DF"/>
<path d="M298.9 55.1L289.1 38.1L293.1 35.8L302.9 52.8L298.9 55.1Z" fill="#1169DF"/>
<path d="M258.6 164.4L256.3 160.5L273.3 150.7L275.6 154.6L258.6 164.4Z" fill="#1169DF"/>
<path d="M381 197.2L371.2 180.2L375.1 177.9L384.9 194.9L381 197.2Z" fill="#1169DF"/>
<path d="M375.1 55.1L371.2 52.8L381 35.8L384.9 38.1L375.1 55.1Z" fill="#1169DF"/>
<path d="M273.3 82.4L256.3 72.6L258.6 68.6L275.6 78.4L273.3 82.4Z" fill="#1169DF"/>
<path d="M293.1 197.2L289.1 194.9L298.9 177.9L302.9 180.2L293.1 197.2Z" fill="#1169DF"/>
<path d="M415.5 164.4L398.5 154.6L400.7 150.7L417.7 160.5L415.5 164.4Z" fill="#1169DF"/>
<path fill-rule="evenodd" clip-rule="evenodd" d="M337 232.4C273.1 232.4 221.2 180.4 221.2 116.5C221.2 52.6 273.1 0.599976 337 0.599976C400.9 0.599976 452.9 52.6 452.9 116.5C452.9 180.4 400.9 232.4 337 232.4ZM337 9.79999C278.2 9.79999 230.3 57.7 230.3 116.5C230.3 175.4 278.2 223.3 337 223.3C395.9 223.3 443.8 175.4 443.8 116.5C443.8 57.7 395.9 9.79999 337 9.79999V9.79999Z" fill="#1169DF"/>
</svg>
